<?xml version="1.0" encoding="utf-8"?>
<!-- Generator: Adobe Illustrator 27.8.1, SVG Export Plug-In . SVG Version: 6.00 Build 0)  -->
<svg version="1.1" id="Calque_1" xmlns="http://www.w3.org/2000/svg" xmlns:xlink="http://www.w3.org/1999/xlink" x="0px" y="0px"
	 viewBox="0 0 479.3 75.2" style="enable-background:new 0 0 479.3 75.2;" xml:space="preserve">
<style type="text/css">
	.st0{fill:#FFFFFF;}
</style>
<g>
	<path class="st0" d="M85.9,1.7H4.5C3.1,1.7,2,2.8,2,4.2v67.1c0,1.4,1.1,2.5,2.5,2.5h81.4c1.4,0,2.5-1.1,2.5-2.5v-67
		C88.4,2.9,87.3,1.7,85.9,1.7z M34.4,46.3v-17c0-1.2,0.7-2.3,1.8-2.9s2.5-0.5,3.6,0.2l14.5,8.5c0.1,0,0.1,0.1,0.2,0.1
		c0.9,0.6,1.3,1.6,1.3,2.6s-0.5,2-1.3,2.6c-0.1,0.1-0.1,0.1-0.2,0.1L39.8,49c-0.6,0.4-1.3,0.6-1.9,0.6c-0.6,0-1.1-0.1-1.6-0.4
		C35.1,48.7,34.4,47.5,34.4,46.3z M61.4,11.2V6.8h8.5v4.4C69.9,11.2,61.4,11.2,61.4,11.2z M56.3,11.2h-8.5V6.8h8.5V11.2z M42.8,11.2
		h-8.5V6.8h8.5V11.2z M29.2,11.2h-8.5V6.8h8.5V11.2z M29.2,64.4v4.4h-8.5v-4.4H29.2z M34.3,64.4h8.5v4.4h-8.5V64.4z M47.8,64.4h8.5
		v4.4h-8.5V64.4z M61.4,64.4h8.5v4.4h-8.5V64.4z M83.3,11.2h-8.4V6.8h8.4V11.2z M15.6,6.8v4.4H6.9V6.8H15.6z M7,64.4h8.7v4.4H7V64.4
		z M75,68.9v-4.4h8.3v4.4H75z"/>
</g>
<g>
	<path class="st0" d="M155.8,32.3h-7.6c-0.2-1.2-0.6-2.3-1.2-3.3c-0.6-1-1.3-1.8-2.2-2.5s-1.8-1.2-2.9-1.5c-1.1-0.3-2.3-0.5-3.6-0.5
		c-2.3,0-4.3,0.6-6,1.7s-3.1,2.8-4.1,4.9c-1,2.2-1.5,4.8-1.5,7.9c0,3.2,0.5,5.8,1.5,8s2.4,3.8,4.1,4.9c1.7,1.1,3.7,1.6,6,1.6
		c1.2,0,2.4-0.2,3.5-0.5s2.1-0.8,2.9-1.5c0.9-0.6,1.6-1.4,2.2-2.4s1-2,1.2-3.2h7.6c-0.3,2-0.9,3.8-1.8,5.5c-0.9,1.7-2.2,3.2-3.7,4.6
		c-1.5,1.3-3.3,2.3-5.3,3.1c-2,0.7-4.3,1.1-6.7,1.1c-3.6,0-6.9-0.8-9.8-2.5c-2.9-1.7-5.1-4.1-6.8-7.3c-1.6-3.2-2.5-7-2.5-11.5
		s0.8-8.3,2.5-11.5s3.9-5.6,6.8-7.3c2.9-1.7,6.1-2.5,9.7-2.5c2.3,0,4.5,0.3,6.4,1c2,0.6,3.8,1.6,5.3,2.8c1.6,1.2,2.8,2.8,3.8,4.6
		C154.8,27.9,155.5,29.9,155.8,32.3z"/>
	<path class="st0" d="M165.5,24.2c-1.2,0-2.2-0.4-3-1.2s-1.3-1.7-1.3-2.8c0-1.1,0.4-2,1.3-2.8c0.8-0.8,1.8-1.2,3-1.2s2.2,0.4,3,1.2
		c0.8,0.8,1.2,1.7,1.2,2.8c0,1.1-0.4,2-1.2,2.8S166.7,24.2,165.5,24.2z M161.8,59.7V28.6h7.3v31.1H161.8z"/>
	<path class="st0" d="M183.5,41.5v18.2h-7.3V28.6h7v5.3h0.4c0.7-1.7,1.9-3.1,3.4-4.1c1.6-1,3.5-1.5,5.8-1.5c2.1,0,4,0.5,5.6,1.4
		s2.8,2.2,3.7,4s1.3,3.9,1.3,6.3v19.7h-7.3V41.1c0-2.1-0.5-3.7-1.6-4.9s-2.6-1.8-4.4-1.8c-1.3,0-2.4,0.3-3.4,0.8
		c-1,0.6-1.8,1.4-2.3,2.4S183.5,40,183.5,41.5z"/>
	<path class="st0" d="M224.2,60.3c-3.1,0-5.8-0.7-8.1-2s-4-3.2-5.2-5.5c-1.2-2.4-1.8-5.2-1.8-8.5c0-3.2,0.6-6,1.8-8.4
		s2.9-4.3,5.1-5.7c2.2-1.4,4.8-2,7.8-2c1.9,0,3.7,0.3,5.4,0.9s3.2,1.6,4.5,2.8c1.3,1.3,2.4,2.9,3.1,4.9c0.8,2,1.1,4.3,1.1,7.1v2.2
		h-25.5v-4.9h18.5c0-1.4-0.3-2.7-0.9-3.8c-0.6-1.1-1.4-2-2.5-2.6s-2.3-1-3.7-1c-1.5,0-2.8,0.4-3.9,1.1c-1.1,0.7-2,1.7-2.6,2.8
		c-0.6,1.2-0.9,2.4-1,3.8v4.3c0,1.8,0.3,3.4,1,4.6s1.6,2.3,2.8,3s2.6,1,4.2,1c1.1,0,2-0.2,2.9-0.5s1.6-0.8,2.2-1.3s1.1-1.3,1.4-2.2
		l6.8,0.8c-0.4,1.8-1.3,3.4-2.5,4.7s-2.8,2.4-4.6,3.1S226.6,60.3,224.2,60.3z"/>
	<path class="st0" d="M243.7,59.7V28.6h7v5.3h0.4c0.6-1.8,1.7-3.2,3.2-4.2s3.3-1.5,5.4-1.5s3.9,0.5,5.3,1.5c1.5,1,2.5,2.4,3.1,4.2
		h0.3c0.7-1.7,1.9-3.1,3.5-4.1s3.6-1.5,5.8-1.5c2.9,0,5.2,0.9,7,2.7s2.7,4.4,2.7,7.9v20.8h-7.3V40c0-1.9-0.5-3.3-1.5-4.2
		s-2.3-1.3-3.8-1.3c-1.8,0-3.1,0.6-4.1,1.6c-1,1.1-1.5,2.5-1.5,4.3v19.3H262v-20c0-1.6-0.5-2.9-1.4-3.8s-2.2-1.4-3.8-1.4
		c-1.1,0-2,0.3-2.9,0.8s-1.6,1.3-2.1,2.2c-0.5,1-0.8,2.1-0.8,3.4v18.8C251,59.7,243.7,59.7,243.7,59.7z"/>
	<path class="st0" d="M303.3,60.3c-2,0-3.7-0.4-5.3-1.1c-1.6-0.7-2.8-1.8-3.7-3.1c-0.9-1.4-1.4-3.1-1.4-5.1c0-1.8,0.3-3.2,1-4.4
		c0.6-1.1,1.5-2.1,2.7-2.8c1.1-0.7,2.4-1.2,3.8-1.6s2.9-0.6,4.4-0.8c1.8-0.2,3.3-0.4,4.4-0.5s2-0.4,2.5-0.7s0.8-0.8,0.8-1.5v-0.1
		c0-1.5-0.5-2.7-1.4-3.5s-2.2-1.3-3.9-1.3c-1.8,0-3.2,0.4-4.3,1.2c-1,0.8-1.8,1.7-2.1,2.8l-6.8-1c0.5-1.9,1.4-3.5,2.7-4.7
		c1.2-1.3,2.8-2.2,4.6-2.9c1.8-0.6,3.8-1,6-1c1.5,0,3,0.2,4.5,0.5s2.8,0.9,4.1,1.7c1.2,0.8,2.2,1.9,3,3.3s1.1,3.1,1.1,5.2v20.8h-7
		v-4.3h-0.2c-0.4,0.9-1.1,1.7-1.9,2.4s-1.8,1.3-3,1.8C306.3,60.1,304.9,60.3,303.3,60.3z M305.2,55c1.5,0,2.7-0.3,3.8-0.9
		c1.1-0.6,1.9-1.4,2.5-2.3s0.9-2,0.9-3.2v-3.7c-0.2,0.2-0.6,0.4-1.2,0.5c-0.5,0.2-1.2,0.3-1.8,0.4c-0.7,0.1-1.3,0.2-2,0.3
		s-1.2,0.2-1.7,0.2c-1.1,0.1-2.1,0.4-2.9,0.7s-1.5,0.8-2,1.4c-0.5,0.6-0.7,1.4-0.7,2.3c0,1.3,0.5,2.4,1.5,3.1
		C302.4,54.6,303.7,55,305.2,55z"/>
	<path class="st0" d="M349.4,29.7c-0.2-1.8-1-3.1-2.4-4.1s-3.2-1.5-5.4-1.5c-1.6,0-2.9,0.2-4,0.7s-2,1.1-2.6,1.9s-0.9,1.7-0.9,2.8
		c0,0.9,0.2,1.6,0.6,2.2c0.4,0.6,0.9,1.2,1.6,1.6s1.5,0.8,2.3,1.1s1.7,0.5,2.5,0.7l3.9,1c1.6,0.4,3.1,0.9,4.5,1.5s2.8,1.4,3.9,2.3
		c1.2,0.9,2.1,2.1,2.7,3.4s1,2.9,1,4.7c0,2.4-0.6,4.6-1.9,6.4c-1.2,1.8-3,3.3-5.4,4.3c-2.3,1-5.2,1.5-8.5,1.5c-3.2,0-6-0.5-8.4-1.5
		s-4.2-2.5-5.5-4.4s-2-4.3-2.2-7h7.4c0.1,1.4,0.6,2.6,1.3,3.6c0.8,1,1.8,1.7,3.1,2.1c1.3,0.5,2.7,0.7,4.2,0.7c1.6,0,3.1-0.2,4.3-0.7
		c1.2-0.5,2.2-1.2,2.9-2.1c0.7-0.9,1.1-1.9,1.1-3.1c0-1.1-0.3-2-1-2.7c-0.6-0.7-1.5-1.3-2.6-1.8s-2.4-0.9-3.9-1.3l-4.7-1.2
		c-3.4-0.9-6.1-2.2-8.1-4s-3-4.2-3-7.1c0-2.4,0.7-4.6,2-6.4s3.1-3.3,5.4-4.3s4.9-1.5,7.8-1.5s5.5,0.5,7.7,1.5s4,2.4,5.2,4.2
		c1.3,1.8,1.9,3.9,2,6.2h-6.9V29.7z"/>
	<path class="st0" d="M376.6,60.3c-3.1,0-5.8-0.7-8-2c-2.2-1.4-3.9-3.2-5.1-5.7s-1.8-5.2-1.8-8.3c0-3.2,0.6-5.9,1.8-8.4
		c1.2-2.4,2.9-4.3,5.2-5.7c2.2-1.4,4.8-2,7.9-2c2.5,0,4.8,0.5,6.7,1.4c2,0.9,3.5,2.2,4.7,3.9c1.2,1.7,1.8,3.6,2,5.9h-7
		c-0.3-1.5-1-2.7-2-3.8s-2.5-1.5-4.2-1.5c-1.5,0-2.8,0.4-3.9,1.2s-2,2-2.6,3.5s-0.9,3.3-0.9,5.4c0,2.1,0.3,3.9,0.9,5.5
		c0.6,1.5,1.5,2.7,2.6,3.5s2.5,1.2,4,1.2c1.1,0,2-0.2,2.9-0.6c0.9-0.4,1.6-1,2.2-1.8s1-1.7,1.2-2.9h7c-0.2,2.2-0.8,4.1-1.9,5.8
		s-2.6,3-4.6,4S379.2,60.3,376.6,60.3z"/>
	<path class="st0" d="M409,60.3c-3,0-5.7-0.7-7.9-2s-4-3.2-5.2-5.6s-1.8-5.2-1.8-8.4s0.6-6,1.8-8.4s2.9-4.3,5.2-5.6s4.9-2,7.9-2
		s5.7,0.7,7.9,2s4,3.2,5.2,5.6s1.8,5.2,1.8,8.4s-0.6,6-1.8,8.4c-1.2,2.4-2.9,4.3-5.2,5.6S412.1,60.3,409,60.3z M409.1,54.5
		c1.6,0,3-0.5,4.1-1.4s1.9-2.1,2.5-3.7c0.5-1.5,0.8-3.3,0.8-5.1c0-1.9-0.3-3.6-0.8-5.2c-0.5-1.5-1.4-2.8-2.5-3.7s-2.5-1.4-4.1-1.4
		c-1.7,0-3.1,0.5-4.2,1.4s-1.9,2.1-2.5,3.7c-0.5,1.5-0.8,3.3-0.8,5.2s0.3,3.6,0.8,5.1s1.4,2.8,2.5,3.7S407.4,54.5,409.1,54.5z"/>
	<path class="st0" d="M429.6,59.7V28.6h7.1v5.2h0.3c0.6-1.8,1.5-3.2,2.9-4.2s3-1.5,4.7-1.5c0.4,0,0.9,0,1.4,0.1
		c0.5,0,0.9,0.1,1.3,0.2v6.7c-0.3-0.1-0.8-0.2-1.5-0.3s-1.3-0.1-1.9-0.1c-1.3,0-2.5,0.3-3.6,0.9c-1.1,0.6-1.9,1.4-2.5,2.4
		s-0.9,2.2-0.9,3.5v18.2C436.9,59.7,429.6,59.7,429.6,59.7z"/>
	<path class="st0" d="M464.2,60.3c-3.1,0-5.8-0.7-8.1-2c-2.3-1.3-4-3.2-5.2-5.5c-1.2-2.4-1.8-5.2-1.8-8.5c0-3.2,0.6-6,1.8-8.4
		c1.2-2.4,2.9-4.3,5.1-5.7s4.8-2,7.8-2c1.9,0,3.7,0.3,5.4,0.9c1.7,0.6,3.2,1.6,4.5,2.8c1.3,1.3,2.4,2.9,3.1,4.9
		c0.8,2,1.1,4.3,1.1,7.1v2.2h-25.5v-4.9h18.5c0-1.4-0.3-2.7-0.9-3.8s-1.4-2-2.5-2.6s-2.3-1-3.7-1c-1.5,0-2.8,0.4-3.9,1.1
		s-2,1.7-2.6,2.8c-0.6,1.2-0.9,2.4-1,3.8v4.3c0,1.8,0.3,3.4,1,4.6s1.6,2.3,2.8,3c1.2,0.7,2.6,1,4.2,1c1.1,0,2-0.2,2.9-0.5
		s1.6-0.8,2.2-1.3c0.6-0.6,1.1-1.3,1.4-2.2l6.8,0.8c-0.4,1.8-1.3,3.4-2.5,4.7s-2.7,2.4-4.6,3.1S466.6,60.3,464.2,60.3z"/>
</g>
</svg>
